<svg width="37" height="31" viewBox="0 0 37 31" fill="none" xmlns="http://www.w3.org/2000/svg">
<path d="M34.6917 7.22401C34.4297 7.37186 34.1587 7.42897 33.9077 7.52814C32.6227 8.03548 31.2867 8.29211 29.8897 8.14475C27.9487 7.93997 26.6437 6.97346 25.7327 5.39418C25.1157 4.32313 24.3047 3.32938 23.4687 2.38364C22.8697 1.70621 21.9917 1.45971 20.9897 1.47524C18.2977 1.51698 15.6047 1.50263 12.9117 1.48278C12.3547 1.47867 11.9367 1.52529 11.7877 2.11255C11.7197 2.37815 11.5077 2.61113 11.3787 2.86609C9.4547 6.65681 6.08771 7.4528 1.84771 7.38078C1.25071 7.37065 0.659699 6.64697 0.093699 6.22267C0.033699 6.17765 0.141713 5.91575 0.207713 5.7678C0.498713 5.11354 0.834708 4.47431 1.09071 3.80908C1.23671 3.42794 1.24671 3.00482 1.34071 2.60509C1.77571 0.760503 2.8247 0.110348 4.8847 0.238582C7.5117 0.402019 10.1437 0.553573 12.7747 0.580877C16.7837 0.622491 20.7967 0.602773 24.8047 0.510212C26.8427 0.463163 28.8797 0.241323 30.9067 0.0214318C32.4677 -0.147895 33.8187 0.698095 34.0367 2.13542C34.1707 3.02155 34.2497 3.91462 34.3707 4.80254C34.3917 4.95805 34.5017 5.10354 34.6307 5.19972C34.6917 5.81474 34.6917 6.4837 34.6917 7.22401Z" fill="#BC6C25"/>
<path d="M34.6912 12.9924C34.4142 13.4755 34.2342 14.0845 33.7852 14.3198C32.3812 15.0561 30.9183 15.739 29.3983 16.2759C27.9803 16.7765 26.4593 17.0637 24.8703 17.49C23.3773 17.7236 22.0052 17.9894 20.6172 18.084C17.7672 18.2782 14.9073 18.3569 12.0553 18.5325C10.9193 18.6025 9.79426 18.8032 8.60826 18.9326C8.39926 18.9043 8.24725 18.8877 8.03525 18.8569C7.86325 18.8714 7.75126 18.9002 7.56926 18.9536C5.79026 19.1809 4.08326 19.3836 2.31926 19.5803C2.11126 19.5884 1.96026 19.6027 1.76126 19.5957C1.57326 19.585 1.43326 19.5955 1.29326 19.6061C0.929257 19.0418 0.566258 18.4775 0.248258 17.8278C0.222258 17.572 0.152258 17.4017 0.0822581 17.2313C0.0732581 16.7923 0.0652481 16.3532 0.128248 15.845C0.200248 15.6846 0.201245 15.5934 0.203245 15.5021C0.294245 14.7169 0.386247 13.9316 0.574247 13.0912C0.785247 12.8783 0.90025 12.7206 1.01425 12.563C1.26325 12.5401 1.51125 12.5173 1.82625 12.5553C1.99825 12.6222 2.10326 12.6282 2.20926 12.6342C2.51326 12.7199 2.81826 12.8055 3.18526 12.9641C3.68726 13.552 3.76225 13.5665 4.08125 13.1992C7.26925 13.9817 10.2602 13.5826 13.1172 12.1695C13.5382 11.9608 14.1203 11.9886 14.7283 11.9717C15.8943 12.3566 16.9622 12.6768 18.0892 13.0151C18.0072 12.4072 17.0153 11.8985 14.9073 11.2627C13.8053 10.6896 13.7273 10.415 14.3743 9.1875C14.6473 9.268 14.9363 9.3357 15.2093 9.43652C17.3953 10.2454 19.5843 11.0498 21.7623 11.8765C24.0293 12.7373 26.3743 13.0129 28.9203 12.6374C29.1113 12.6197 29.2013 12.5976 29.2913 12.5755C29.4803 12.5489 29.6693 12.5222 29.9563 12.5025C30.2283 12.4705 30.4032 12.4317 30.5782 12.3929C30.6812 12.3842 30.7832 12.3756 30.9812 12.373C31.3072 12.3389 31.5382 12.2987 31.7682 12.2584C31.9202 12.2483 32.0732 12.2382 32.3412 12.2405C32.8222 12.2376 33.1872 12.2222 33.5522 12.2068C33.9232 12.4536 34.2942 12.7005 34.6912 12.9924Z" fill="#BC6C25"/>
<path d="M1.78929 21.1236C1.77029 21.0123 1.75029 20.901 1.72429 20.6955C1.68229 20.5203 1.64828 20.4392 1.61328 20.3581C1.63528 20.2454 1.65829 20.1327 1.77129 19.994C1.95129 19.9431 2.04029 19.9183 2.19029 19.899C2.37529 19.8971 2.49829 19.8899 2.69229 19.8927C4.76829 19.6564 6.77329 19.4098 8.85329 19.1774C11.8433 18.9659 14.7613 18.7689 17.6733 18.5058C20.0273 18.293 22.3723 18.0005 24.7873 17.7375C28.2233 16.8129 31.7173 16.1448 34.3533 13.7341C34.4333 13.6611 34.5763 13.6471 34.6903 13.6055C34.6903 13.8685 34.6903 14.1315 34.6903 14.4603C34.5193 14.5487 34.3023 14.5168 34.1853 14.602C29.8773 17.7206 24.8053 18.7698 19.5183 19.224C17.6463 19.3848 15.7593 19.4244 13.8983 19.6517C13.0273 19.7582 12.1973 20.1709 11.3553 20.4602C10.8713 20.6266 10.4143 20.9239 9.91829 20.9896C7.62229 21.2938 5.31829 21.5521 3.01329 21.7871C2.67029 21.822 2.30328 21.6454 1.92528 21.466C1.86428 21.2849 1.82729 21.2043 1.78929 21.1236Z" fill="#BC6C25"/>
<path d="M25.3162 28.1839C24.9512 27.5764 24.6442 27.0008 24.2702 26.4662C23.2112 24.9541 21.8612 24.0684 19.7502 24.2064C17.4202 24.3587 15.0702 24.2614 12.7292 24.2312C12.1382 24.2236 11.7312 24.2937 11.5532 24.8941C11.4612 25.2072 11.2132 25.4777 11.0622 25.7791C9.22024 29.4629 5.74524 30.2527 1.86124 30.1509C1.26124 30.1351 0.672239 29.4452 0.105239 29.0339C0.0352388 28.9829 0.106236 28.7158 0.165236 28.5673C0.484236 27.7624 0.955243 26.9874 1.12524 26.1579C1.70024 23.3508 2.40024 22.9537 5.48624 23.0573C11.0442 23.2439 16.6092 23.3086 22.1712 23.2983C24.7532 23.2935 27.3372 23.0258 29.9142 22.8174C32.2342 22.6299 33.2462 23.3562 33.4912 25.5113C33.6392 26.8113 33.8042 28.11 33.9202 29.4124C33.9402 29.6417 33.8302 30.0273 33.6582 30.1028C31.7932 30.9251 29.8772 31.3426 27.8562 30.5562C26.6762 30.0972 25.8562 29.3133 25.3162 28.1839Z" fill="#BC6C25"/>
<path d="M17.129 9.75781C19.074 10.1938 20.001 10.5879 20.077 11.0586C19.024 10.7967 18.027 10.5486 17 10.271C17.031 10.0991 17.092 9.95674 17.129 9.75781Z" fill="#BC6C25"/>
<path d="M10.8457 16.113C11.9697 15.998 13.0887 15.8348 14.2197 15.7779C17.0577 15.635 19.9037 15.5709 22.7397 15.413C24.1217 15.336 25.4867 15.1197 26.9287 14.9609C26.9987 15.0073 26.9997 15.0592 26.9997 15.1501C24.6167 15.3862 22.2387 15.6107 19.8527 15.7739C16.9017 15.9758 13.9427 16.127 10.9167 16.2618C10.8507 16.1867 10.8507 16.1498 10.8457 16.113Z" fill="#BC6C25"/>
<path d="M10.7894 16.305C10.8504 16.3451 10.8504 16.377 10.8414 16.4326C8.83742 16.6199 6.83841 16.7834 4.77341 16.9122C4.70241 16.8398 4.69741 16.8024 4.69141 16.765C6.36241 16.6223 8.03341 16.4797 9.82341 16.3315C10.0574 16.3045 10.1724 16.283 10.2874 16.2617C10.4364 16.2733 10.5854 16.2851 10.7894 16.305Z" fill="#BC6C25"/>
</svg>
