<svg width="180" height="32" viewBox="0 0 180 32" fill="none" xmlns="http://www.w3.org/2000/svg">
<g clip-path="url(#clip0_120_483)">
<path d="M180 7.22401C179.738 7.37186 179.467 7.42897 179.216 7.52814C177.931 8.03548 176.595 8.29211 175.198 8.14475C173.257 7.93997 171.952 6.97346 171.041 5.39418C170.424 4.32313 169.613 3.32938 168.777 2.38364C168.178 1.70621 167.3 1.45971 166.298 1.47524C163.606 1.51698 160.913 1.50263 158.22 1.48278C157.663 1.47867 157.245 1.52529 157.096 2.11255C157.028 2.37815 156.816 2.61113 156.687 2.86609C154.763 6.65681 151.396 7.4528 147.156 7.38078C146.559 7.37065 145.968 6.64697 145.402 6.22267C145.342 6.17765 145.45 5.91575 145.516 5.7678C145.807 5.11354 146.143 4.47431 146.399 3.80908C146.545 3.42794 146.555 3.00482 146.649 2.60509C147.084 0.760503 148.133 0.110348 150.193 0.238582C152.82 0.402019 155.452 0.553573 158.083 0.580877C162.092 0.622491 166.105 0.602773 170.113 0.510212C172.151 0.463163 174.188 0.241323 176.215 0.0214318C177.776 -0.147895 179.127 0.698095 179.345 2.13542C179.479 3.02155 179.558 3.91462 179.679 4.80254C179.7 4.95805 179.81 5.10354 179.939 5.19972C180 5.81474 180 6.4837 180 7.22401Z" fill="black"/>
<path d="M2.64294 31.8423C2.2746 31.6741 1.90625 31.506 1.51095 31.2358C1.31758 31.0232 1.15117 30.9126 0.984756 30.802C0.867512 30.6817 0.75027 30.5614 0.683753 30.3893C0.915548 30.2546 1.09662 30.1717 1.30021 30.0786C0.816601 29.8946 0.4083 29.7392 0 29.5838C0 24.9662 3.72529e-09 20.3486 0.0538282 15.6665C0.334329 15.5029 0.561002 15.4038 0.951253 15.2333C0.635319 15.1826 0.491381 15.1595 0.347444 15.1364C0.843653 13.5784 2.11205 12.9213 3.7266 12.6799C4.02173 12.6358 4.32596 12.6436 4.69927 12.7104C4.77398 12.9169 4.77541 13.0405 4.77684 13.1642C4.77684 13.1642 4.75878 13.1907 4.6811 13.1814C4.41678 13.1557 4.23014 13.1394 3.98408 13.1179C4.12227 13.2903 4.21116 13.4012 4.30006 13.5121C4.15791 13.8184 4.01576 14.1247 3.78813 14.5169C3.67632 14.725 3.62709 14.8471 3.62698 14.9693C3.62297 19.705 3.62157 24.4408 3.63033 29.1766C3.63068 29.3632 3.73369 29.5496 3.78886 29.7362C3.89834 30.0411 4.00781 30.3461 4.12639 30.7582C4.24596 30.9451 4.35641 31.0247 4.46686 31.1044C4.59713 31.1654 4.72739 31.2263 4.92274 31.3676C5.10527 31.4446 5.22271 31.4412 5.34015 31.4377C5.34015 31.4377 5.40189 31.4263 5.37987 31.4991C5.32851 31.7151 5.29918 31.8581 5.26985 32.0012C4.54021 31.9937 3.81056 31.9862 3.0119 31.9053C2.84291 31.8354 2.74292 31.8389 2.64294 31.8423ZM2.23821 30.5636C2.72036 30.5677 2.72036 30.5677 2.67523 30.06C2.49674 30.216 2.355 30.3399 2.23821 30.5636ZM0.559052 29.1581C0.623619 29.1588 0.688187 29.1594 0.752754 29.16C0.753022 29.1353 0.753297 29.0889 0.753297 29.0889C0.689046 29.0843 0.624437 29.084 0.559052 29.1581Z" fill="black"/>
<path d="M147.1 20.9126C147.081 20.8013 147.061 20.69 147.035 20.4845C146.993 20.3093 146.959 20.2282 146.924 20.1471C146.946 20.0344 146.969 19.9217 147.082 19.783C147.262 19.7321 147.351 19.7073 147.501 19.688C147.686 19.6861 147.809 19.6789 148.003 19.6817C150.079 19.4454 152.084 19.1988 154.164 18.9664C157.154 18.7549 160.072 18.5579 162.984 18.2948C165.338 18.082 167.683 17.7895 170.098 17.5265C173.534 16.6019 177.028 15.9338 179.664 13.5231C179.744 13.4501 179.887 13.4361 180.001 13.3945C180.001 13.6575 180.001 13.9205 180.001 14.2493C179.83 14.3377 179.613 14.3058 179.496 14.391C175.188 17.5096 170.116 18.5588 164.829 19.013C162.957 19.1738 161.07 19.2134 159.209 19.4407C158.338 19.5472 157.508 19.9599 156.666 20.2492C156.182 20.4156 155.725 20.7129 155.229 20.7786C152.933 21.0828 150.629 21.3411 148.324 21.5761C147.981 21.611 147.614 21.4344 147.236 21.255C147.175 21.0739 147.138 20.9933 147.1 20.9126Z" fill="black"/>
<path d="M180 13.4204C179.886 13.5123 179.742 13.5248 179.662 13.59C177.014 15.7413 173.504 16.3376 170.053 17.1175C169.987 17.0171 169.987 16.9567 170.029 16.86C171.527 16.4629 173.027 16.191 174.426 15.7172C175.925 15.2091 177.368 14.5628 178.752 13.8659C179.195 13.6433 179.372 13.0669 179.671 12.6523C179.749 12.7356 179.828 12.8189 179.953 12.9148C180 13.0736 180 13.2196 180 13.4204Z" fill="black"/>
<path d="M0 29.7656C0.483116 29.876 0.966232 30.0399 1.53846 30.234C1.29756 30.3323 1.08331 30.4196 0.799294 30.5098C0.515101 30.3124 0.300675 30.1123 0.0431245 29.9726C1.11759e-08 29.9617 0 29.8904 0 29.7656Z" fill="black"/>
<path d="M180 12.7346C179.723 13.2177 179.543 13.8267 179.094 14.062C177.69 14.7983 176.227 15.4812 174.707 16.0181C173.289 16.5187 171.768 16.8059 170.179 17.2322C168.686 17.4658 167.314 17.7316 165.926 17.8262C163.076 18.0204 160.216 18.0991 157.364 18.2747C156.228 18.3447 155.103 18.5454 153.917 18.6748C153.708 18.6465 153.556 18.6299 153.344 18.5991C153.172 18.6136 153.06 18.6424 152.878 18.6958C151.099 18.9231 149.392 19.1258 147.628 19.3225C147.42 19.3306 147.269 19.3449 147.07 19.3379C146.882 19.3272 146.742 19.3377 146.602 19.3483C146.238 18.784 145.875 18.2197 145.557 17.57C145.531 17.3142 145.461 17.1439 145.391 16.9735C145.382 16.5345 145.374 16.0954 145.437 15.5872C145.509 15.4268 145.51 15.3356 145.512 15.2443C145.603 14.4591 145.695 13.6738 145.883 12.8334C146.094 12.6205 146.209 12.4628 146.323 12.3052C146.572 12.2823 146.82 12.2595 147.135 12.2975C147.307 12.3644 147.412 12.3704 147.518 12.3764C147.822 12.4621 148.127 12.5477 148.494 12.7063C148.996 13.2942 149.071 13.3087 149.39 12.9414C152.578 13.7239 155.569 13.3248 158.426 11.9117C158.847 11.703 159.429 11.7308 160.037 11.7139C161.203 12.0988 162.271 12.419 163.398 12.7573C163.316 12.1494 162.324 11.6407 160.216 11.0049C159.114 10.4318 159.036 10.1572 159.683 8.92969C159.956 9.01019 160.245 9.07789 160.518 9.17871C162.704 9.98755 164.893 10.792 167.071 11.6187C169.338 12.4795 171.683 12.7551 174.229 12.3796C174.42 12.3619 174.51 12.3398 174.6 12.3177C174.789 12.2911 174.978 12.2644 175.265 12.2447C175.537 12.2127 175.712 12.1739 175.887 12.1351C175.99 12.1264 176.092 12.1178 176.29 12.1152C176.616 12.0811 176.847 12.0409 177.077 12.0006C177.229 11.9905 177.382 11.9804 177.65 11.9827C178.131 11.9798 178.496 11.9644 178.861 11.949C179.232 12.1958 179.603 12.4427 180 12.7346Z" fill="black"/>
<path d="M88.5945 31.972C88.6791 31.8238 88.8033 31.6145 88.954 31.5985C89.3957 31.5517 89.848 31.5818 90.3494 31.5818C90.3494 28.9087 90.3494 26.2887 90.3494 23.6036C89.1375 23.6036 87.9219 23.6036 86.6371 23.6036C86.6371 26.3838 86.6371 29.1547 86.6371 31.9443C84.6491 31.9443 82.7297 31.9443 80.8103 31.9443C80.7979 31.8583 80.7856 31.7724 80.7732 31.6864C81.3815 31.6316 81.9898 31.5768 82.6607 31.5164C82.6607 25.6519 82.6607 19.7831 82.6607 13.8697C82.0346 13.8126 81.4021 13.7549 80.7695 13.6971C80.7811 13.6072 80.7926 13.5172 80.8041 13.4272C82.7129 13.4272 84.6217 13.4272 86.6069 13.4272C86.6069 16.6252 86.6069 19.8164 86.6069 23.0489C87.8833 23.0489 89.0856 23.0489 90.3456 23.0489C90.3456 20.0075 90.3456 16.967 90.3456 13.9218C89.8236 13.5415 88.9646 14.117 88.3397 13.3945C91.0595 13.3945 93.5829 13.3945 96.11 13.3945C96.0369 13.7156 96.0369 13.7156 94.3592 13.8421C94.3592 19.7268 94.3592 25.6166 94.3592 31.5054C94.9676 31.575 95.559 31.6414 96.1485 31.7189C96.1603 31.7205 96.15 31.8517 96.15 31.9992C93.6433 31.9992 91.1448 31.9992 88.5945 31.972Z" fill="black"/>
<path d="M168.316 29.2073C167.951 28.5998 167.644 28.0242 167.27 27.4896C166.211 25.9775 164.861 25.0918 162.75 25.2298C160.42 25.3821 158.07 25.2848 155.729 25.2546C155.138 25.247 154.731 25.3171 154.553 25.9175C154.461 26.2306 154.213 26.5011 154.062 26.8025C152.22 30.4863 148.745 31.2761 144.861 31.1743C144.261 31.1585 143.672 30.4686 143.105 30.0573C143.035 30.0063 143.106 29.7392 143.165 29.5907C143.484 28.7858 143.955 28.0108 144.125 27.1813C144.7 24.3742 145.4 23.9771 148.486 24.0807C154.044 24.2673 159.609 24.332 165.171 24.3217C167.753 24.3169 170.337 24.0492 172.914 23.8408C175.234 23.6533 176.246 24.3796 176.491 26.5347C176.639 27.8347 176.804 29.1334 176.92 30.4358C176.94 30.6651 176.83 31.0507 176.658 31.1262C174.793 31.9485 172.877 32.366 170.856 31.5796C169.676 31.1206 168.856 30.3367 168.316 29.2073Z" fill="black"/>
<path d="M109.223 19.5058C109.222 22.2841 109.244 24.9868 109.211 27.689C109.185 29.8226 107.955 31.5113 105.899 31.8201C104.325 32.0566 102.639 32.0611 101.062 31.8355C98.9827 31.538 97.7333 29.8601 97.7074 27.7427C97.6767 25.2173 97.6997 22.6914 97.6996 20.1657C97.6996 19.1049 97.6839 18.0439 97.7035 16.9834C97.7537 14.267 99.5768 12.6541 102.579 12.6524C103.17 12.6521 103.762 12.6529 104.353 12.6531C107.281 12.6544 109.148 14.2884 109.219 16.9296C109.241 17.7626 109.223 18.5965 109.223 19.5058ZM101.532 17.3081C101.533 21.4239 101.526 25.5396 101.538 29.6554C101.542 30.9264 102.217 31.5697 103.47 31.5681C104.698 31.5666 105.342 30.9413 105.344 29.6977C105.351 24.7739 105.354 19.8501 105.342 14.9264C105.339 13.7229 104.64 13.0757 103.424 13.0757C102.271 13.0756 101.574 13.7297 101.537 14.8843C101.513 15.6412 101.533 16.3992 101.532 17.3081Z" fill="black"/>
<path d="M16.4284 13.3945C19.9768 13.3945 23.4385 13.3945 26.9223 13.3945C26.9223 14.5612 26.9223 15.6466 26.9223 16.7881C25.6153 16.7881 24.3323 16.7881 23.0014 16.7881C22.8389 15.8616 23.3175 14.6412 22.067 14.1191C21.221 13.766 20.1416 13.8252 19.0978 13.6911C19.0978 16.9404 19.0978 19.9854 19.0978 23.2027C20.3937 23.2027 21.6924 23.2027 22.9911 23.2027C22.9881 23.3036 22.9851 23.4044 22.982 23.5052C21.6966 23.5052 20.4112 23.5052 19.0939 23.5052C19.0939 26.2607 19.0939 28.886 19.0939 31.629C20.1818 31.5258 21.2969 31.8849 22.2729 31.2598C23.3104 30.5953 22.8076 29.5615 23.0121 28.6626C24.2922 28.6626 25.5539 28.6626 26.8829 28.6626C26.8829 29.7647 26.8829 30.8645 26.8829 31.9992C22.2912 31.9992 17.7033 31.9992 13.1153 31.9992C13.1074 31.9067 13.0995 31.8142 13.0916 31.7217C13.7005 31.6694 14.3093 31.6171 14.9929 31.5584C14.9929 25.6849 14.9929 19.7967 14.9929 13.8527C14.364 13.8168 13.7201 13.78 13.0762 13.7433C13.0777 13.627 13.0792 13.5108 13.0807 13.3945C14.1677 13.3945 15.2547 13.3945 16.4284 13.3945Z" fill="black"/>
<path d="M76.0957 17.1178C75.8117 17.1165 75.6012 17.1165 75.2867 17.1165C75.2867 16.4933 75.299 15.9247 75.2844 15.3568C75.2425 13.7277 74.2641 12.9778 72.3345 13.0837C71.0474 13.1544 70.1717 14.2178 70.2733 15.5889C70.3583 16.7354 70.9534 17.6816 71.8236 18.4077C73.3446 19.6769 74.9353 20.8768 76.544 22.0491C79.0036 23.8415 79.6226 26.2153 79.0098 28.919C78.5635 30.8883 76.9644 31.9063 74.4375 31.9908C73.5022 32.0221 72.5556 31.9814 71.6254 31.8814C69.1264 31.6127 67.7098 29.8734 68.0133 27.4738C69.1824 27.4738 70.3566 27.4738 71.6415 27.4738C71.6415 28.0785 71.6267 28.6698 71.6443 29.2602C71.6916 30.8466 72.5319 31.5302 74.3675 31.4931C75.8665 31.4627 76.7824 30.6234 76.6392 29.1689C76.5642 28.4076 76.2584 27.5745 75.781 26.9617C75.1279 26.1233 74.2496 25.4233 73.3999 24.7376C72.3022 23.8519 71.1088 23.0701 70.0075 22.188C67.7799 20.404 67.3102 18.0897 67.9608 15.5458C68.4083 13.7963 69.9954 12.7164 71.9253 12.6686C72.8119 12.6466 73.6996 12.6512 74.5866 12.6577C77.4932 12.6789 79.108 14.29 78.9456 17.1191C78.0275 17.1191 77.0984 17.1191 76.0957 17.1178Z" fill="black"/>
<path d="M37.6142 20.2121C37.6142 21.1856 37.6142 22.0841 37.6142 23.0841C38.3403 23.0841 39.0492 23.034 39.7439 23.0995C40.3266 23.1545 41.0372 22.8096 41.6849 23.5038C40.2326 23.5038 38.9873 23.5038 37.6766 23.5038C37.6766 26.2175 37.6766 28.8694 37.6766 31.5201C40.1141 31.7312 41.7497 31.8964 41.5183 28.6606C42.7836 28.6606 44.0466 28.6606 45.3624 28.6606C45.3624 29.7558 45.3624 30.8449 45.3624 31.9992C40.8411 31.9992 36.3028 31.9992 31.5391 31.9992C32.2307 31.3444 33.012 31.8015 33.639 31.5173C33.639 25.6365 33.639 19.7294 33.639 13.7501C33.0141 13.7106 32.3693 13.6699 31.7244 13.6292C31.7288 13.551 31.7331 13.4728 31.7375 13.3945C36.2766 13.3945 40.8157 13.3945 45.3852 13.3945C45.3852 14.4526 45.3852 15.5471 45.3852 16.6974C44.1101 16.6974 42.8449 16.6974 41.5227 16.6974C41.3652 15.7931 41.8187 14.6189 40.7158 14.1C39.8731 13.7036 38.7763 13.7203 37.6142 13.5229C37.6142 15.8684 37.6142 18.0028 37.6142 20.2121Z" fill="black"/>
<path d="M134.495 17.14C134.356 16.6318 134.249 16.1327 134.239 15.6321C134.204 13.8441 133.359 13.0947 131.366 13.1291C129.904 13.1544 128.994 13.9414 128.909 15.2319C128.827 16.4842 129.443 17.5099 130.421 18.31C131.817 19.4512 133.335 20.4753 134.794 21.5564C135.426 22.0242 136.1 22.4622 136.652 22.9956C138.568 24.8458 138.84 27.0417 138.041 29.3268C137.368 31.2546 135.533 31.8816 133.434 31.9809C132.444 32.0277 131.436 31.9921 130.451 31.8885C127.67 31.5962 126.272 30.027 126.502 27.4923C127.766 27.4923 129.034 27.4923 130.365 27.4923C130.365 28.1305 130.347 28.7284 130.369 29.325C130.425 30.7834 131.281 31.4895 132.975 31.4966C134.715 31.504 135.751 30.775 135.656 29.3339C135.601 28.5074 135.258 27.5734 134.693 26.924C133.859 25.9637 132.738 25.1864 131.69 24.3813C130.532 23.4916 129.232 22.7339 128.145 21.7846C126.019 19.9271 125.762 17.6255 126.596 15.2229C127.123 13.7065 128.511 12.9066 130.245 12.7465C131.599 12.6214 132.993 12.6197 134.346 12.7488C136.893 12.9916 138.316 14.6824 138.115 17.1483C136.942 17.1483 135.757 17.1483 134.495 17.14Z" fill="black"/>
<path d="M55.7561 24.0418C54.7624 26.5468 53.7923 28.9968 52.8153 31.4641C55.1297 31.7106 56.9455 31.8062 56.7075 28.6314C57.7854 28.6314 58.8605 28.6314 59.9682 28.6314C59.9682 29.762 59.9682 30.8681 59.9682 31.9992C56.1511 31.9992 52.3825 31.9992 48.4609 31.9992C50.8801 25.9265 53.2766 19.9104 55.7176 13.783C54.5685 13.7998 53.4992 13.5376 52.5493 14.142C51.4898 14.8161 52.0092 15.8794 51.7994 16.7748C50.7026 16.7748 49.6381 16.7748 48.5116 16.7748C48.5116 15.648 48.5116 14.5436 48.5116 13.3945C52.2908 13.3945 56.0806 13.3945 59.9994 13.3945C58.5824 16.9515 57.1811 20.4691 55.7561 24.0418Z" fill="black"/>
<path d="M123.846 29.3515C123.846 30.2664 123.846 31.1088 123.846 31.9992C119.527 31.9992 115.249 31.9992 110.77 31.9992C111.402 31.3399 112.155 31.8232 112.722 31.5112C112.722 25.6463 112.722 19.7637 112.722 13.9073C112.155 13.5757 111.39 14.0867 110.78 13.3945C115.226 13.3945 119.48 13.3945 123.792 13.3945C123.792 14.4889 123.792 15.5922 123.792 16.737C122.606 16.737 121.427 16.737 120.175 16.737C120.037 15.8349 120.468 14.637 119.357 14.1249C118.569 13.7613 117.555 13.8128 116.557 13.6666C116.557 16.8887 116.557 19.9363 116.557 23.0459C117.714 23.2579 118.985 22.9305 120.174 23.2148C120.168 23.311 120.162 23.4071 120.156 23.5033C118.966 23.5033 117.777 23.5033 116.543 23.5033C116.543 26.2571 116.543 28.9057 116.543 31.7663C117.571 31.5962 118.626 31.621 119.454 31.2349C120.518 30.7391 120.015 29.5863 120.175 28.6667C121.366 28.6667 122.541 28.6667 123.79 28.6667C123.807 28.8558 123.827 29.0674 123.846 29.3515Z" fill="black"/>
<path d="M59.8019 6.75721C59.8019 7.32006 59.7941 7.81263 59.8037 8.30496C59.818 9.03739 59.5737 9.82881 60.7691 10.4068C59.0878 10.4068 57.7013 10.4068 56.3148 10.4068C56.2499 10.3535 56.185 10.3003 56.12 10.2471C57.3363 9.84443 57.1003 9.05215 57.1046 8.3287C57.1114 7.16258 57.1064 5.99641 57.1064 4.7836C55.3058 4.7836 53.596 4.7836 51.7459 4.7836C51.7459 5.4092 51.7459 6.05406 51.7459 6.69893C51.7459 7.21484 51.7575 7.73097 51.7431 8.24661C51.7216 9.01991 51.5942 9.81464 52.5268 10.4205C51.1172 10.4205 49.7075 10.4205 48.2978 10.4205C48.2304 10.3714 48.1629 10.3223 48.0954 10.2732C49.2537 9.89417 49.0522 9.14753 49.0529 8.45805C49.0551 6.16386 49.0537 3.86966 49.0537 1.47906C47.9157 1.56824 46.7791 1.3283 46.1092 2.39767C45.9631 2.63087 45.3257 2.65871 44.9145 2.78113C44.8133 2.54004 44.6314 2.30053 44.6242 2.0576C44.5858 0.751135 44.6008 0.749313 46.1663 0.749236C47.7165 0.749158 49.2671 0.77041 50.8168 0.746499C51.5235 0.735597 51.7972 0.943555 51.7603 1.53073C51.7119 2.30029 51.7484 3.07341 51.7484 3.8983C53.5152 3.8983 55.2462 3.8983 57.073 3.8983C57.0582 2.82571 57.5587 1.68447 56.2497 0.771463C57.3177 0.771463 58.3877 0.746361 59.4511 0.802834C59.586 0.809993 59.7842 1.2433 59.788 1.48097C59.8163 3.216 59.8025 4.95148 59.8019 6.75721Z" fill="black"/>
<path d="M34.2806 11.0664C33.3988 10.8134 33.0556 10.3434 33.0771 9.58225C33.1227 7.96809 33.1303 6.35151 33.079 4.73769C33.0569 4.0419 33.4434 3.69972 34.1243 3.58642C35.0728 3.42859 36.0395 3.35187 37.0439 3.23515C37.0952 2.4264 37.2977 1.56107 36.2743 0.905853C36.3366 0.8526 36.3988 0.799347 36.4611 0.746094C37.4482 0.804719 38.4379 0.844347 39.4195 0.944004C39.5549 0.957757 39.7354 1.26445 39.7479 1.4432C39.7894 2.03597 39.7636 2.63225 39.7636 3.34634C40.3865 3.34634 40.9759 3.33257 41.5642 3.34895C43.2735 3.39655 43.8309 3.88595 43.8324 5.32198C43.834 6.78798 43.8073 8.25448 43.8448 9.71977C43.8625 10.4142 43.5033 10.7966 42.7691 10.9535C42.3255 11.0483 41.8701 11.1665 41.4206 11.1647C39.0632 11.1554 36.7059 11.1111 34.2806 11.0664ZM35.7263 6.97866C35.7246 7.79896 35.7342 8.61943 35.7171 9.43949C35.7072 9.91359 35.9176 10.2317 36.4879 10.2413C37.8054 10.2636 39.1241 10.2724 40.4412 10.2449C40.9826 10.2335 41.2193 9.94129 41.2101 9.44381C41.1834 8.0024 41.1825 6.56003 41.2138 5.11872C41.227 4.51175 40.9082 4.23319 40.2527 4.2248C39.0726 4.20969 37.8916 4.20343 36.712 4.22803C36.0845 4.24113 35.6916 4.4993 35.7222 5.11474C35.7506 5.68541 35.727 6.258 35.7263 6.97866Z" fill="black"/>
<path d="M22.0092 0.746094C22.8246 0.892727 23.5573 1.05042 24.2979 1.17499C24.5231 1.21287 24.7713 1.16846 25.0069 1.14624C26.4303 1.01199 27.8524 0.770608 29.2765 0.762939C30.9197 0.754092 31.243 1.27998 31.1498 2.39409C30.9924 4.27633 30.9547 6.16617 30.8955 8.05346C30.8703 8.85839 30.5227 9.74405 31.5382 10.4205C30.1852 10.4205 28.8322 10.4205 27.4792 10.4205C28.54 9.63582 28.2581 8.63244 28.2838 7.7055C28.3334 5.91134 28.3262 4.11571 28.4078 2.32279C28.4312 1.80997 28.2007 1.62059 27.678 1.63776C27.0183 1.65942 26.3462 1.68207 25.7062 1.804C24.5409 2.02602 24.4026 2.18806 24.3805 3.20597C24.3677 3.79274 24.0241 4.07988 23.3758 4.09618C22.3519 4.12192 21.3265 4.10579 20.3017 4.10533C20.2193 4.10529 20.1286 4.10534 20.0557 4.07844C18.8135 3.61953 19.3647 2.68393 19.2864 1.93301C19.2283 1.37492 19.4857 0.918001 20.2754 0.862431C20.8268 0.823629 21.3782 0.783798 22.0092 0.746094ZM22.6688 3.20654C22.7141 2.75231 22.7961 2.29716 22.7801 1.84447C22.7759 1.72535 22.4609 1.51665 22.3023 1.52532C22.1334 1.53456 21.8799 1.73491 21.8424 1.88378C21.7696 2.17281 21.8373 2.48485 21.819 2.78617C21.7912 3.24322 22.0568 3.36514 22.6688 3.20654Z" fill="black"/>
<path d="M5.39994 32.0005C5.36432 31.8512 5.39297 31.7131 5.46953 31.519C7.03525 31.3156 7.53904 30.8181 7.54301 29.4373C7.54863 27.4809 7.54443 25.5246 7.54443 23.4966C6.91113 23.4966 6.33255 23.4966 5.75396 23.4966C5.72657 23.4363 5.69918 23.376 5.67178 23.3157C5.80424 23.2339 5.93613 23.0816 6.06922 23.0808C8.2673 23.0664 10.4655 23.0676 12.6637 23.0796C12.8019 23.0804 12.9393 23.1984 13.0771 23.2619C13.0651 23.3252 13.0531 23.3884 13.0411 23.4517C12.4788 23.4765 11.9165 23.5014 11.2542 23.5307C11.2542 26.2848 11.2542 29.0327 11.2542 31.8257C9.98593 31.8257 8.81855 31.8257 7.6148 31.8257C7.56704 31.6384 7.51646 31.4401 7.4929 31.3477C6.79237 31.577 6.1283 31.7944 5.39994 32.0005Z" fill="black"/>
<path d="M10.8196 14.5995C10.8948 14.6723 10.9701 14.745 11.0362 14.9116C11.1853 15.3547 11.3435 15.7039 11.5017 16.0531C11.5299 16.3282 11.5581 16.6033 11.5165 16.9375C11.4064 17.0342 11.3662 17.0718 11.326 17.1094C10.2873 17.1184 9.24856 17.1273 8.13656 17.0574C8.0632 16.3684 8.08247 15.7577 8.05154 15.1487C8.04201 14.9611 7.89546 14.778 7.81166 14.5929C7.75371 14.5062 7.69577 14.4195 7.69141 14.2659C8.01536 13.9309 8.28574 13.6627 8.55611 13.3945C9.02663 13.5462 9.49715 13.6979 9.95585 13.9125C9.96947 14.0938 9.99492 14.2123 9.99778 14.3378C9.99033 14.3402 10.0055 14.3354 10.0661 14.315C10.198 14.2602 10.2844 14.2213 10.3708 14.1823C10.3708 14.1823 10.3518 14.1927 10.3534 14.2347C10.5098 14.3843 10.6647 14.4919 10.8196 14.5995Z" fill="black"/>
<path d="M8.46139 13.4517C8.21121 13.6925 7.90428 13.9085 7.52883 14.1387C6.77072 13.6153 5.82594 13.5689 4.70722 13.7C4.62131 13.6184 4.6197 13.5319 4.61523 13.4021C5.87647 13.3816 7.14056 13.4042 8.46139 13.4517Z" fill="black"/>
<path d="M160.129 11.1641C162.074 11.6629 163.001 12.1138 163.077 12.6524C162.024 12.3527 161.027 12.0689 160 11.7513C160.031 11.5546 160.092 11.3917 160.129 11.1641Z" fill="black"/>
<path d="M11.5388 16.3712C11.2616 15.9449 11.0066 15.454 10.7695 14.8828C11.0453 15.3038 11.3031 15.8052 11.5388 16.3712Z" fill="black"/>
<path d="M0.769531 30.5117C1.01171 30.651 1.27426 30.8924 1.53876 31.2559C1.29045 31.1233 1.04017 30.8686 0.769531 30.5117Z" fill="black"/>
<path d="M4.26216 14.1387C4.10255 13.9557 4.002 13.736 3.8457 13.3945C4.12402 13.4372 4.33511 13.4695 4.61493 13.5219C4.56284 13.7285 4.44203 13.9153 4.26216 14.1387Z" fill="black"/>
<path d="M4.61493 31.2559C4.38542 31.1529 4.11529 30.9139 3.8457 30.5117C4.08894 30.6056 4.33162 30.8628 4.61493 31.2559Z" fill="black"/>
<path d="M2.30859 30.4735C2.52105 30.2023 2.75403 30.009 3.0474 29.7656C3.12158 30.5577 3.12158 30.5577 2.30859 30.4735Z" fill="black"/>
<path d="M153.846 18.4353C154.97 18.3038 156.089 18.117 157.22 18.0519C160.058 17.8884 162.904 17.8151 165.74 17.6344C167.122 17.5463 168.487 17.2988 169.929 17.1172C169.999 17.1703 170 17.2296 170 17.3336C167.617 17.6038 165.239 17.8606 162.853 18.0474C159.902 18.2784 156.943 18.4513 153.917 18.6056C153.851 18.5196 153.851 18.4774 153.846 18.4353Z" fill="black"/>
<path d="M153.789 18.655C153.85 18.7009 153.85 18.7374 153.841 18.801C151.837 19.0153 149.838 19.2024 147.773 19.3497C147.702 19.2669 147.697 19.2241 147.691 19.1813C149.362 19.0181 151.033 18.8549 152.823 18.6853C153.057 18.6544 153.172 18.6299 153.287 18.6055C153.436 18.6188 153.585 18.6322 153.789 18.655Z" fill="black"/>
<path d="M22.9376 2.93641C22.5052 3.0443 22.2955 2.9412 22.3174 2.55471C22.3319 2.29991 22.2784 2.03604 22.3359 1.79162C22.3655 1.66574 22.5657 1.49631 22.699 1.4885C22.8242 1.48117 23.0729 1.65765 23.0762 1.75838C23.0889 2.14119 23.0242 2.52608 22.9376 2.93641Z" fill="black"/>
</g>
<defs>
<clipPath id="clip0_120_483">
<rect width="180" height="32" fill="white"/>
</clipPath>
</defs>
</svg>
